<?xml version="1.0" encoding="UTF-8"?>
<!DOCTYPE svg PUBLIC "-//W3C//DTD SVG 1.1//EN" "http://www.w3.org/Graphics/SVG/1.1/DTD/svg11.dtd">
<svg xmlns="http://www.w3.org/2000/svg" version="1.1" width="225px" height="225px" style="shape-rendering:geometricPrecision; text-rendering:geometricPrecision; image-rendering:optimizeQuality; fill-rule:evenodd; clip-rule:evenodd" xmlns:xlink="http://www.w3.org/1999/xlink">
<g><path style="opacity:1" fill="#fcfcfc" d="M -0.5,-0.5 C 34.5,-0.5 69.5,-0.5 104.5,-0.5C 52.8039,5.67939 18.9706,33.6794 3,83.5C 1.62752,90.6098 0.460852,97.6098 -0.5,104.5C -0.5,69.5 -0.5,34.5 -0.5,-0.5 Z"/></g>
<g><path style="opacity:1" fill="#fcfcfc" d="M 118.5,-0.5 C 153.833,-0.5 189.167,-0.5 224.5,-0.5C 224.5,34.5 224.5,69.5 224.5,104.5C 218.126,51.9467 189.459,18.1134 138.5,3C 131.766,1.38449 125.099,0.217828 118.5,-0.5 Z"/></g>
<g><path style="opacity:1" fill="#1a1b1e" d="M 104.5,-0.5 C 109.167,-0.5 113.833,-0.5 118.5,-0.5C 125.099,0.217828 131.766,1.38449 138.5,3C 189.459,18.1134 218.126,51.9467 224.5,104.5C 224.5,109.167 224.5,113.833 224.5,118.5C 218.678,169.612 191.345,203.446 142.5,220C 134.476,222.182 126.476,223.682 118.5,224.5C 113.833,224.5 109.167,224.5 104.5,224.5C 51.9467,218.126 18.1134,189.459 3,138.5C 1.38449,131.766 0.217828,125.099 -0.5,118.5C -0.5,113.833 -0.5,109.167 -0.5,104.5C 0.460852,97.6098 1.62752,90.6098 3,83.5C 18.9706,33.6794 52.8039,5.67939 104.5,-0.5 Z"/></g>
<g><path style="opacity:1" fill="#fdfdfd" d="M 103.5,12.5 C 150.488,11.7125 183.988,32.3792 204,74.5C 217.726,112.634 211.726,147.3 186,178.5C 154.158,210.059 116.992,218.559 74.5,204C 29.2565,182.028 9.08978,145.861 14,95.5C 25.2449,47.6514 55.0782,19.9848 103.5,12.5 Z"/></g>
<g><path style="opacity:1" fill="#1a1b1e" d="M 88.5,35.5 C 90.4835,35.3832 92.1502,36.0499 93.5,37.5C 100.586,49.3374 107.42,61.3374 114,73.5C 114.667,74.8333 114.667,76.1667 114,77.5C 108.926,82.1292 103.093,84.6292 96.5,85C 89.2073,72.9156 82.0406,60.749 75,48.5C 74.0799,45.6917 74.9133,43.5251 77.5,42C 81.2299,39.807 84.8965,37.6404 88.5,35.5 Z"/></g>
<g><path style="opacity:1" fill="#1a1b1e" d="M 70.5,49.5 C 78.3676,61.2333 85.7009,73.4 92.5,86C 88.0161,89.9691 85.6828,94.9691 85.5,101C 87.797,118.601 95.797,132.934 109.5,144C 114.911,147.886 120.578,148.386 126.5,145.5C 133.5,157.5 140.5,169.5 147.5,181.5C 140.509,187.599 132.509,189.432 123.5,187C 110.563,180.403 99.7301,171.236 91,159.5C 77.8135,142.132 67.4801,123.132 60,102.5C 55.3691,89.7689 54.0357,76.7689 56,63.5C 59.6833,57.5874 64.5166,52.9207 70.5,49.5 Z"/></g>
<g><path style="opacity:1" fill="#fcfcfc" d="M -0.5,118.5 C 0.217828,125.099 1.38449,131.766 3,138.5C 18.1134,189.459 51.9467,218.126 104.5,224.5C 69.5,224.5 34.5,224.5 -0.5,224.5C -0.5,189.167 -0.5,153.833 -0.5,118.5 Z"/></g>
<g><path style="opacity:1" fill="#fcfcfc" d="M 224.5,118.5 C 224.5,153.833 224.5,189.167 224.5,224.5C 189.167,224.5 153.833,224.5 118.5,224.5C 126.476,223.682 134.476,222.182 142.5,220C 191.345,203.446 218.678,169.612 224.5,118.5 Z"/></g>
<g><path style="opacity:1" fill="#1a1b1e" d="M 142.5,130.5 C 145.325,130.081 147.491,131.081 149,133.5C 155.92,145.004 162.586,156.671 169,168.5C 169.667,169.833 169.667,171.167 169,172.5C 163.926,177.129 158.093,179.629 151.5,180C 144.207,167.916 137.041,155.749 130,143.5C 129.333,142.167 129.333,140.833 130,139.5C 134.322,136.601 138.489,133.601 142.5,130.5 Z"/></g>
</svg>
