<svg xmlns="http://www.w3.org/2000/svg" xmlns:xlink="http://www.w3.org/1999/xlink" width="1080" zoomAndPan="magnify" viewBox="0 0 810 809.999993" height="1080" preserveAspectRatio="xMidYMid meet" version="1.0"><path fill="#fcfcfc" d="M -1.800781 -1.800781 C 124.199219 -1.800781 250.199219 -1.800781 376.199219 -1.800781 C 190.09375 20.445312 68.292969 121.246094 10.800781 300.601562 C 5.859375 326.195312 1.660156 351.394531 -1.800781 376.199219 C -1.800781 250.199219 -1.800781 124.199219 -1.800781 -1.800781 Z M -1.800781 -1.800781 " fill-opacity="1" fill-rule="evenodd"/><path fill="#fcfcfc" d="M 426.601562 -1.800781 C 553.796875 -1.800781 681 -1.800781 808.199219 -1.800781 C 808.199219 124.199219 808.199219 250.199219 808.199219 376.199219 C 785.253906 187.007812 682.050781 65.207031 498.601562 10.800781 C 474.359375 4.984375 450.355469 0.785156 426.601562 -1.800781 Z M 426.601562 -1.800781 " fill-opacity="1" fill-rule="evenodd"/><path fill="#1a1b1e" d="M 376.199219 -1.800781 C 393 -1.800781 409.796875 -1.800781 426.601562 -1.800781 C 450.355469 0.785156 474.359375 4.984375 498.601562 10.800781 C 682.050781 65.207031 785.253906 187.007812 808.199219 376.199219 C 808.199219 393 808.199219 409.796875 808.199219 426.601562 C 787.242188 610.601562 688.84375 732.40625 513 792 C 484.113281 799.855469 455.3125 805.253906 426.601562 808.199219 C 409.796875 808.199219 393 808.199219 376.199219 808.199219 C 187.007812 785.253906 65.207031 682.050781 10.800781 498.601562 C 4.984375 474.359375 0.785156 450.355469 -1.800781 426.601562 C -1.800781 409.796875 -1.800781 393 -1.800781 376.199219 C 1.660156 351.394531 5.859375 326.195312 10.800781 300.601562 C 68.292969 121.246094 190.09375 20.445312 376.199219 -1.800781 Z M 376.199219 -1.800781 " fill-opacity="1" fill-rule="evenodd"/><path fill="#fdfdfd" d="M 372.601562 45 C 541.757812 42.164062 662.355469 116.566406 734.398438 268.199219 C 783.8125 405.484375 762.214844 530.28125 669.601562 642.601562 C 554.96875 756.210938 421.171875 786.8125 268.199219 734.398438 C 105.324219 655.300781 32.722656 525.097656 50.398438 343.800781 C 90.882812 171.546875 198.28125 71.945312 372.601562 45 Z M 372.601562 45 " fill-opacity="1" fill-rule="evenodd"/><path fill="#1a1b1e" d="M 318.601562 127.800781 C 325.742188 127.378906 331.742188 129.78125 336.601562 135 C 362.109375 177.613281 386.710938 220.816406 410.398438 264.601562 C 412.800781 269.398438 412.800781 274.199219 410.398438 279 C 392.132812 295.664062 371.136719 304.664062 347.398438 306 C 321.144531 262.496094 295.347656 218.695312 270 174.601562 C 266.6875 164.488281 269.6875 156.691406 279 151.199219 C 292.425781 143.304688 305.628906 135.503906 318.601562 127.800781 Z M 318.601562 127.800781 " fill-opacity="1" fill-rule="evenodd"/><path fill="#1a1b1e" d="M 253.800781 178.199219 C 282.125 220.441406 308.523438 264.238281 333 309.601562 C 316.859375 323.890625 308.457031 341.890625 307.800781 363.601562 C 316.070312 426.964844 344.871094 478.5625 394.199219 518.398438 C 413.679688 532.390625 434.082031 534.191406 455.398438 523.800781 C 480.601562 567 505.800781 610.199219 531 653.398438 C 505.832031 675.355469 477.03125 681.957031 444.601562 673.199219 C 398.027344 649.449219 359.027344 616.449219 327.601562 574.199219 C 280.128906 511.675781 242.929688 443.273438 216 369 C 199.328125 323.167969 194.527344 276.367188 201.601562 228.601562 C 214.859375 207.316406 232.261719 190.515625 253.800781 178.199219 Z M 253.800781 178.199219 " fill-opacity="1" fill-rule="evenodd"/><path fill="#fcfcfc" d="M -1.800781 426.601562 C 0.785156 450.355469 4.984375 474.359375 10.800781 498.601562 C 65.207031 682.050781 187.007812 785.253906 376.199219 808.199219 C 250.199219 808.199219 124.199219 808.199219 -1.800781 808.199219 C -1.800781 681 -1.800781 553.796875 -1.800781 426.601562 Z M -1.800781 426.601562 " fill-opacity="1" fill-rule="evenodd"/><path fill="#fcfcfc" d="M 808.199219 426.601562 C 808.199219 553.796875 808.199219 681 808.199219 808.199219 C 681 808.199219 553.796875 808.199219 426.601562 808.199219 C 455.3125 805.253906 484.113281 799.855469 513 792 C 688.84375 732.40625 787.242188 610.601562 808.199219 426.601562 Z M 808.199219 426.601562 " fill-opacity="1" fill-rule="evenodd"/><path fill="#1a1b1e" d="M 513 469.800781 C 523.171875 468.292969 530.96875 471.890625 536.398438 480.601562 C 561.3125 522.015625 585.308594 564.015625 608.398438 606.601562 C 610.800781 611.398438 610.800781 616.203125 608.398438 621 C 590.132812 637.664062 569.136719 646.664062 545.398438 648 C 519.144531 604.496094 493.347656 560.695312 468 516.601562 C 465.597656 511.800781 465.597656 507 468 502.199219 C 483.558594 491.761719 498.558594 480.964844 513 469.800781 Z M 513 469.800781 " fill-opacity="1" fill-rule="evenodd"/></svg>