<?xml version="1.0" encoding="UTF-8"?>
<!DOCTYPE svg PUBLIC "-//W3C//DTD SVG 1.1//EN" "http://www.w3.org/Graphics/SVG/1.1/DTD/svg11.dtd">
<svg xmlns="http://www.w3.org/2000/svg" version="1.1" width="512px" height="512px" style="shape-rendering:geometricPrecision; text-rendering:geometricPrecision; image-rendering:optimizeQuality; fill-rule:evenodd; clip-rule:evenodd" xmlns:xlink="http://www.w3.org/1999/xlink">
<g><path style="opacity:0.962" fill="#000000" d="M 3.5,18.5 C 31.502,18.3334 59.502,18.5 87.5,19C 95.1784,23.0158 100.345,29.1825 103,37.5C 105.162,50.7947 106.995,64.128 108.5,77.5C 231.5,77.3333 354.5,77.5 477.5,78C 493.379,79.5024 502.879,88.0024 506,103.5C 506.226,107.887 506.726,112.221 507.5,116.5C 493.568,157.796 479.735,199.13 466,240.5C 461.061,254.564 452.228,265.398 439.5,273C 436.899,273.92 434.232,274.587 431.5,275C 333.167,275.5 234.834,275.667 136.5,275.5C 138.353,294.325 141.186,312.991 145,331.5C 147.773,337.94 152.606,341.774 159.5,343C 255.499,343.5 351.499,343.667 447.5,343.5C 447.5,350.167 447.5,356.833 447.5,363.5C 346.499,363.667 245.499,363.5 144.5,363C 137.271,361.103 131.771,356.936 128,350.5C 125.006,345.184 123.006,339.518 122,333.5C 108.914,235.142 95.747,136.809 82.5,38.5C 56.1667,38.5 29.8333,38.5 3.5,38.5C 3.5,31.8333 3.5,25.1667 3.5,18.5 Z M 111.5,97.5 C 230.167,97.3333 348.834,97.5 467.5,98C 480.368,98.702 487.035,105.535 487.5,118.5C 486.932,123.643 485.766,128.643 484,133.5C 471.333,168.167 458.667,202.833 446,237.5C 442.851,246.984 436.351,252.484 426.5,254C 328.833,254.667 231.167,254.667 133.5,254C 125.938,201.9 118.605,149.733 111.5,97.5 Z"/></g>
<g><path style="opacity:0.943" fill="#000000" d="M 190.5,382.5 C 226.952,382.952 247.286,401.286 251.5,437.5C 250.475,457.393 241.808,472.893 225.5,484C 196.469,498.363 171.636,493.197 151,468.5C 137.915,446.373 138.581,424.707 153,403.5C 162.884,391.645 175.384,384.645 190.5,382.5 Z M 189.5,403.5 C 211.069,402.025 224.569,411.691 230,432.5C 229.979,457.521 217.479,470.354 192.5,471C 171.187,466.36 161.354,453.193 163,431.5C 165.202,422.251 170.036,414.751 177.5,409C 181.475,406.854 185.475,405.02 189.5,403.5 Z"/></g>
<g><path style="opacity:0.943" fill="#000000" d="M 396.5,382.5 C 420.351,381.149 438.517,390.482 451,410.5C 464.274,440.996 457.441,465.829 430.5,485C 403.671,497.524 380.171,493.024 360,471.5C 343.441,445.883 344.941,421.383 364.5,398C 373.802,389.848 384.469,384.681 396.5,382.5 Z M 396.5,403.5 C 420.437,402.436 434.103,413.769 437.5,437.5C 435.151,457.849 423.817,469.183 403.5,471.5C 386.242,470.077 375.076,461.077 370,444.5C 367.82,423.545 376.653,409.879 396.5,403.5 Z"/></g>
</svg>
