<svg xmlns="http://www.w3.org/2000/svg" xmlns:xlink="http://www.w3.org/1999/xlink" width="1080" zoomAndPan="magnify" viewBox="0 0 810 809.999993" height="1080" preserveAspectRatio="xMidYMid meet" version="1.0"><defs><clipPath id="e629ca579e"><path d="M 0 183.355469 L 809 183.355469 L 809 626 L 0 626 Z M 0 183.355469 " clip-rule="nonzero"/></clipPath><clipPath id="9a63a33ad1"><path d="M 527 183.355469 L 809 183.355469 L 809 492 L 527 492 Z M 527 183.355469 " clip-rule="nonzero"/></clipPath></defs><g clip-path="url(#e629ca579e)"><path fill="#fcfbfb" d="M -0.898438 182.019531 C 175.347656 182.019531 351.59375 182.019531 527.839844 182.019531 C 527.839844 182.910156 527.839844 183.800781 527.839844 184.691406 C 404.996094 184.246094 282.160156 184.691406 159.324219 186.023438 C 139.996094 194.414062 132.875 208.652344 137.960938 228.746094 C 150.945312 232.6875 156.730469 227.792969 155.316406 214.0625 C 158.433594 210.945312 161.550781 207.832031 164.664062 204.714844 C 285.722656 202.9375 406.78125 202.9375 527.839844 204.714844 C 530.0625 206.941406 532.289062 209.167969 534.515625 211.390625 C 535.847656 321.753906 536.296875 432.121094 535.847656 542.492188 C 515.355469 542.050781 494.882812 542.492188 474.429688 543.828125 C 468.816406 548.457031 467.929688 553.796875 471.761719 559.851562 C 499.351562 561.632812 526.949219 561.632812 554.542969 559.851562 C 557.039062 553.492188 557.929688 546.816406 557.210938 539.824219 C 571.453125 539.824219 585.699219 539.824219 599.9375 539.824219 C 604.394531 486.859375 633.324219 458.378906 686.726562 454.378906 C 738.097656 459.90625 767.027344 488.386719 773.515625 539.824219 C 785.085938 539.824219 796.660156 539.824219 808.230469 539.824219 C 808.230469 568.304688 808.230469 596.785156 808.230469 625.269531 C 538.519531 625.269531 268.808594 625.269531 -0.898438 625.269531 C -0.898438 548.722656 -0.898438 472.179688 -0.898438 395.632812 C 1.207031 396.390625 2.988281 397.722656 4.441406 399.640625 C 50.726562 401.417969 97.015625 401.417969 143.300781 399.640625 C 157.542969 393.410156 157.542969 387.179688 143.300781 380.949219 C 97.015625 379.167969 50.726562 379.167969 4.441406 380.949219 C 2.988281 382.863281 1.207031 384.199219 -0.898438 384.953125 C -0.898438 317.308594 -0.898438 249.664062 -0.898438 182.019531 Z M -0.898438 182.019531 " fill-opacity="1" fill-rule="evenodd"/></g><g clip-path="url(#9a63a33ad1)"><path fill="#fefefe" d="M 527.839844 184.691406 C 527.839844 183.800781 527.839844 182.910156 527.839844 182.019531 C 621.300781 182.019531 714.765625 182.019531 808.230469 182.019531 C 808.230469 285.265625 808.230469 388.511719 808.230469 491.761719 C 793.804688 426.652344 752.859375 391.941406 685.390625 387.625 C 677.011719 353.507812 661.878906 322.800781 639.996094 295.503906 C 612.679688 291.628906 585.085938 290.292969 557.210938 291.496094 C 557.65625 263.890625 557.210938 236.300781 555.878906 208.722656 C 551.015625 195.402344 541.671875 187.390625 527.839844 184.691406 Z M 527.839844 184.691406 " fill-opacity="1" fill-rule="evenodd"/></g><path fill="#262626" d="M 527.839844 184.691406 C 541.671875 187.390625 551.015625 195.402344 555.878906 208.722656 C 557.210938 236.300781 557.65625 263.890625 557.210938 291.496094 C 585.085938 290.292969 612.679688 291.628906 639.996094 295.503906 C 661.878906 322.800781 677.011719 353.507812 685.390625 387.625 C 752.859375 391.941406 793.804688 426.652344 808.230469 491.761719 C 808.230469 507.78125 808.230469 523.800781 808.230469 539.824219 C 796.660156 539.824219 785.085938 539.824219 773.515625 539.824219 C 767.027344 488.386719 738.097656 459.90625 686.726562 454.378906 C 633.324219 458.378906 604.394531 486.859375 599.9375 539.824219 C 585.699219 539.824219 571.453125 539.824219 557.210938 539.824219 C 557.929688 546.816406 557.039062 553.492188 554.542969 559.851562 C 526.949219 561.632812 499.351562 561.632812 471.761719 559.851562 C 467.929688 553.796875 468.816406 548.457031 474.429688 543.828125 C 494.882812 542.492188 515.355469 542.050781 535.847656 542.492188 C 536.296875 432.121094 535.847656 321.753906 534.515625 211.390625 C 532.289062 209.167969 530.0625 206.941406 527.839844 204.714844 C 406.78125 202.9375 285.722656 202.9375 164.664062 204.714844 C 161.550781 207.832031 158.433594 210.945312 155.316406 214.0625 C 156.730469 227.792969 150.945312 232.6875 137.960938 228.746094 C 132.875 208.652344 139.996094 194.414062 159.324219 186.023438 C 282.160156 184.691406 404.996094 184.246094 527.839844 184.691406 Z M 527.839844 184.691406 " fill-opacity="1" fill-rule="evenodd"/><path fill="#c94638" d="M 367.613281 246.105469 C 380.53125 245.078125 392.992188 246.859375 405 251.445312 C 406.847656 252.847656 408.183594 254.625 409.003906 256.785156 C 410.335938 264.746094 410.78125 272.757812 410.339844 280.816406 C 401.441406 280.816406 392.539062 280.816406 383.636719 280.816406 C 383.636719 275.476562 383.636719 270.136719 383.636719 264.796875 C 374.441406 266.25 371.324219 271.589844 374.289062 280.816406 C 380.257812 286.691406 386.933594 291.585938 394.320312 295.503906 C 409.75 310.792969 411.976562 328.148438 400.996094 347.570312 C 385.363281 362.460938 368.003906 364.6875 348.921875 354.246094 C 345.714844 351.835938 343.488281 348.722656 342.246094 344.902344 C 340.914062 336.042969 340.46875 327.144531 340.910156 318.199219 C 349.8125 318.199219 358.714844 318.199219 367.613281 318.199219 C 367.613281 326.210938 367.613281 334.21875 367.613281 342.230469 C 371.144531 342.683594 374.261719 341.792969 376.960938 339.558594 C 378.742188 333.328125 378.742188 327.097656 376.960938 320.867188 C 367.554688 313.484375 358.65625 305.472656 350.257812 296.835938 C 341.078125 274.339844 346.867188 257.429688 367.613281 246.105469 Z M 367.613281 246.105469 " fill-opacity="1" fill-rule="evenodd"/><path fill="#c84435" d="M 220.742188 248.773438 C 236.765625 248.773438 252.789062 248.773438 268.808594 248.773438 C 267.921875 255.894531 267.03125 263.015625 266.140625 270.136719 C 259.019531 270.136719 251.898438 270.136719 244.777344 270.136719 C 244.777344 277.257812 244.777344 284.375 244.777344 291.496094 C 250.117188 291.496094 255.457031 291.496094 260.796875 291.496094 C 265.25 310.1875 258.128906 317.308594 239.4375 312.859375 C 238.347656 327.976562 237.460938 343.105469 236.765625 358.25 C 226.972656 358.25 217.183594 358.25 207.390625 358.25 C 211.257812 321.675781 215.707031 285.183594 220.742188 248.773438 Z M 220.742188 248.773438 " fill-opacity="1" fill-rule="evenodd"/><path fill="#c84637" d="M 284.832031 248.773438 C 299.074219 248.773438 313.316406 248.773438 327.558594 248.773438 C 328.691406 285.257812 329.582031 321.75 330.230469 358.25 C 320.4375 358.25 310.648438 358.25 300.855469 358.25 C 300.855469 352.019531 300.855469 345.789062 300.855469 339.558594 C 297.296875 339.558594 293.734375 339.558594 290.171875 339.558594 C 288.855469 345.714844 287.96875 351.945312 287.503906 358.25 C 277.710938 358.25 267.921875 358.25 258.128906 358.25 C 266.613281 321.648438 275.511719 285.15625 284.832031 248.773438 Z M 284.832031 248.773438 " fill-opacity="1" fill-rule="evenodd"/><path fill="#c84536" d="M 423.691406 248.773438 C 445.074219 248.328125 466.4375 248.773438 487.78125 250.109375 C 485.285156 256.464844 484.394531 263.140625 485.113281 270.136719 C 478.882812 270.136719 472.648438 270.136719 466.417969 270.136719 C 462.996094 299.445312 460.324219 328.816406 458.40625 358.25 C 448.617188 358.25 438.824219 358.25 429.035156 358.25 C 432.292969 328.9375 434.960938 299.566406 437.042969 270.136719 C 431.703125 270.136719 426.363281 270.136719 421.023438 270.136719 C 421.910156 263.015625 422.804688 255.894531 423.691406 248.773438 Z M 423.691406 248.773438 " fill-opacity="1" fill-rule="evenodd"/><path fill="#c74031" d="M 65.859375 270.136719 C 102.367188 269.691406 138.863281 270.136719 175.347656 271.46875 C 182.46875 276.8125 182.46875 282.152344 175.347656 287.492188 C 138.851562 289.273438 102.355469 289.273438 65.859375 287.492188 C 59.019531 281.734375 59.019531 275.949219 65.859375 270.136719 Z M 65.859375 270.136719 " fill-opacity="1" fill-rule="evenodd"/><path fill="#fdf8f8" d="M 300.855469 283.488281 C 303.484375 294.527344 304.375 306.097656 303.523438 318.199219 C 300.855469 318.199219 298.183594 318.199219 295.515625 318.199219 C 296.605469 306.511719 298.382812 294.941406 300.855469 283.488281 Z M 300.855469 283.488281 " fill-opacity="1" fill-rule="evenodd"/><path fill="#fbfbfb" d="M 583.917969 320.867188 C 594.636719 320.425781 605.316406 320.871094 615.960938 322.203125 C 629.609375 342.371094 641.179688 363.734375 650.675781 386.289062 C 628.441406 387.621094 606.1875 388.066406 583.917969 387.625 C 583.917969 365.371094 583.917969 343.121094 583.917969 320.867188 Z M 583.917969 320.867188 " fill-opacity="1" fill-rule="evenodd"/><path fill="#292929" d="M 36.484375 323.539062 C 76.550781 323.09375 116.609375 323.539062 156.652344 324.875 C 166.101562 329.75 166.988281 335.980469 159.324219 343.566406 C 118.378906 345.34375 77.433594 345.34375 36.484375 343.566406 C 29.582031 336.90625 29.582031 330.230469 36.484375 323.539062 Z M 36.484375 323.539062 " fill-opacity="1" fill-rule="evenodd"/><path fill="#292929" d="M -0.898438 395.632812 C -0.898438 392.074219 -0.898438 388.511719 -0.898438 384.953125 C 1.207031 384.199219 2.988281 382.863281 4.441406 380.949219 C 50.726562 379.167969 97.015625 379.167969 143.300781 380.949219 C 157.542969 387.179688 157.542969 393.410156 143.300781 399.640625 C 97.015625 401.417969 50.726562 401.417969 4.441406 399.640625 C 2.988281 397.722656 1.207031 396.390625 -0.898438 395.632812 Z M -0.898438 395.632812 " fill-opacity="1" fill-rule="evenodd"/><path fill="#747474" d="M 242.105469 387.625 C 251.503906 384.132812 261.292969 384.132812 271.480469 387.625 C 271.148438 389.242188 270.261719 390.132812 268.808594 390.292969 C 260.464844 387.679688 251.5625 386.789062 242.105469 387.625 Z M 242.105469 387.625 " fill-opacity="1" fill-rule="evenodd"/><path fill="#7a7a7a" d="M 453.066406 387.625 C 443.003906 386.941406 433.210938 387.828125 423.691406 390.292969 C 427.355469 386.859375 432.25 385.078125 438.378906 384.953125 C 443.808594 384.96875 448.703125 385.859375 453.066406 387.625 Z M 453.066406 387.625 " fill-opacity="1" fill-rule="evenodd"/><path fill="#282828" d="M 194.039062 384.953125 C 205 384.242188 215.683594 385.578125 226.082031 388.957031 C 228.953125 390.929688 230.734375 393.601562 231.425781 396.96875 C 229.007812 412.492188 226.78125 428.066406 224.75 443.695312 C 222.339844 446.90625 219.222656 449.128906 215.402344 450.371094 C 205.652344 451.703125 195.859375 452.148438 186.027344 451.707031 C 188.503906 429.4375 191.171875 407.183594 194.039062 384.953125 Z M 194.039062 384.953125 " fill-opacity="1" fill-rule="evenodd"/><path fill="#202020" d="M 242.105469 387.625 C 251.5625 386.789062 260.464844 387.679688 268.808594 390.292969 C 268.808594 392.964844 268.808594 395.632812 268.808594 398.304688 C 258.128906 396.523438 253.675781 400.972656 255.457031 411.65625 C 259.019531 411.65625 262.578125 411.65625 266.140625 411.65625 C 266.140625 415.214844 266.140625 418.777344 266.140625 422.335938 C 254.367188 421.167969 249.917969 426.507812 252.789062 438.355469 C 256.347656 438.355469 259.910156 438.355469 263.46875 438.355469 C 263.46875 441.917969 263.46875 445.476562 263.46875 449.039062 C 253.242188 450.558594 244.34375 448.777344 236.765625 443.695312 C 238.15625 424.964844 239.933594 406.273438 242.105469 387.625 Z M 242.105469 387.625 " fill-opacity="1" fill-rule="evenodd"/><path fill="#232323" d="M 298.183594 449.039062 C 288.804688 450.519531 280.792969 448.738281 274.152344 443.695312 C 275.347656 424.058594 277.128906 404.476562 279.492188 384.953125 C 284.832031 384.953125 290.171875 384.953125 295.515625 384.953125 C 293.925781 402.777344 292.148438 420.578125 290.171875 438.355469 C 293.734375 438.355469 297.296875 438.355469 300.855469 438.355469 C 301.570312 442.625 300.679688 446.1875 298.183594 449.039062 Z M 298.183594 449.039062 " fill-opacity="1" fill-rule="evenodd"/><path fill="#242424" d="M 322.21875 449.039062 C 317.765625 449.039062 313.316406 449.039062 308.867188 449.039062 C 308.867188 446.367188 308.867188 443.695312 308.867188 441.027344 C 310.144531 422.285156 311.925781 403.59375 314.207031 384.953125 C 319.546875 384.953125 324.886719 384.953125 330.230469 384.953125 C 328.0625 406.75 325.394531 428.109375 322.21875 449.039062 Z M 322.21875 449.039062 " fill-opacity="1" fill-rule="evenodd"/><path fill="#232323" d="M 364.945312 449.039062 C 356.933594 449.039062 348.921875 449.039062 340.910156 449.039062 C 341.71875 442.203125 340.824219 435.972656 338.238281 430.347656 C 338.238281 416.105469 338.238281 401.863281 338.238281 387.625 C 343.582031 387.625 348.921875 387.625 354.261719 387.625 C 353.820312 401.003906 354.265625 414.355469 355.597656 427.675781 C 357.84375 414.242188 360.515625 400.890625 363.609375 387.625 C 369.320312 384.234375 375.105469 384.234375 380.964844 387.625 C 375.199219 408.015625 369.859375 428.484375 364.945312 449.039062 Z M 364.945312 449.039062 " fill-opacity="1" fill-rule="evenodd"/><path fill="#262626" d="M 410.339844 443.695312 C 401.445312 448.496094 391.652344 450.277344 380.964844 449.039062 C 382.941406 427.695312 384.722656 406.332031 386.308594 384.953125 C 396.097656 384.953125 405.890625 384.953125 415.679688 384.953125 C 415.679688 389.402344 415.679688 393.855469 415.679688 398.304688 C 411.230469 398.304688 406.78125 398.304688 402.328125 398.304688 C 402.328125 402.753906 402.328125 407.203125 402.328125 411.65625 C 405 411.65625 407.671875 411.65625 410.339844 411.65625 C 410.339844 415.214844 410.339844 418.777344 410.339844 422.335938 C 406.78125 422.335938 403.21875 422.335938 399.660156 422.335938 C 399.660156 427.675781 399.660156 433.015625 399.660156 438.355469 C 404.953125 437.441406 408.515625 439.21875 410.339844 443.695312 Z M 410.339844 443.695312 " fill-opacity="1" fill-rule="evenodd"/><path fill="#262626" d="M 453.066406 387.625 C 459.035156 389.722656 461.707031 394.171875 461.078125 400.972656 C 461.25 407.746094 458.582031 413.089844 453.066406 416.996094 C 455.425781 419.792969 457.207031 422.910156 458.40625 426.339844 C 456.09375 434.632812 455.199219 443.089844 455.738281 451.707031 C 450.398438 451.707031 445.054688 451.707031 439.714844 451.707031 C 441.261719 441.726562 441.261719 431.9375 439.714844 422.335938 C 435.640625 430.757812 433.859375 439.65625 434.375 449.039062 C 429.035156 449.039062 423.691406 449.039062 418.351562 449.039062 C 419.78125 429.417969 421.558594 409.835938 423.691406 390.292969 C 433.210938 387.828125 443.003906 386.941406 453.066406 387.625 Z M 453.066406 387.625 " fill-opacity="1" fill-rule="evenodd"/><path fill="#272727" d="M 487.78125 449.039062 C 483.332031 449.039062 478.882812 449.039062 474.429688 449.039062 C 474.429688 446.367188 474.429688 443.695312 474.429688 441.027344 C 475.230469 422.917969 473.449219 405.117188 469.089844 387.625 C 474.152344 385.046875 479.492188 384.15625 485.113281 384.953125 C 483.992188 411.480469 486.664062 412.371094 493.121094 387.625 C 498.253906 384.578125 503.59375 384.132812 509.144531 386.289062 C 498.015625 405.882812 490.894531 426.796875 487.78125 449.039062 Z M 487.78125 449.039062 " fill-opacity="1" fill-rule="evenodd"/><path fill="#ededed" d="M 204.71875 395.632812 C 211.257812 394.324219 215.710938 396.550781 218.074219 402.308594 C 216.125 412.441406 214.789062 422.675781 214.066406 433.015625 C 211.265625 437.304688 207.261719 439.085938 202.050781 438.355469 C 203.332031 424.144531 204.222656 409.90625 204.71875 395.632812 Z M 204.71875 395.632812 " fill-opacity="1" fill-rule="evenodd"/><path fill="#cdcdcd" d="M 437.042969 395.632812 C 440.605469 395.632812 444.167969 395.632812 447.726562 395.632812 C 450.132812 405.621094 446.574219 410.960938 437.042969 411.65625 C 437.042969 406.316406 437.042969 400.972656 437.042969 395.632812 Z M 437.042969 395.632812 " fill-opacity="1" fill-rule="evenodd"/><path fill="#202020" d="M 140.632812 438.355469 C 144.449219 438.144531 148.011719 439.035156 151.3125 441.027344 C 153.535156 470.359375 154.871094 499.730469 155.316406 529.144531 C 157.414062 533.910156 160.527344 537.917969 164.664062 541.160156 C 200.269531 542.046875 235.875 542.941406 271.480469 543.828125 C 278.601562 549.167969 278.601562 554.507812 271.480469 559.851562 C 234.09375 561.632812 196.710938 561.632812 159.324219 559.851562 C 147.140625 555.503906 139.574219 547.050781 136.625 534.484375 C 134.84375 504.222656 134.84375 473.957031 136.625 443.695312 C 138.539062 442.242188 139.875 440.464844 140.632812 438.355469 Z M 140.632812 438.355469 " fill-opacity="1" fill-rule="evenodd"/><path fill="#7f7f7f" d="M 236.765625 443.695312 C 244.34375 448.777344 253.242188 450.558594 263.46875 449.039062 C 254.222656 451.660156 244.433594 452.550781 234.09375 451.707031 C 233.460938 448.261719 234.351562 445.589844 236.765625 443.695312 Z M 236.765625 443.695312 " fill-opacity="1" fill-rule="evenodd"/><path fill="#7f7f7f" d="M 274.152344 443.695312 C 280.792969 448.738281 288.804688 450.519531 298.183594 449.039062 C 289.839844 451.652344 280.9375 452.542969 271.480469 451.707031 C 270.847656 448.261719 271.738281 445.589844 274.152344 443.695312 Z M 274.152344 443.695312 " fill-opacity="1" fill-rule="evenodd"/><path fill="#7f7f7f" d="M 308.867188 441.027344 C 308.867188 443.695312 308.867188 446.367188 308.867188 449.039062 C 313.316406 449.039062 317.765625 449.039062 322.21875 449.039062 C 317.503906 451.605469 312.164062 452.496094 306.195312 451.707031 C 305.480469 447.4375 306.371094 443.878906 308.867188 441.027344 Z M 308.867188 441.027344 " fill-opacity="1" fill-rule="evenodd"/><path fill="#7e7e7e" d="M 338.238281 430.347656 C 340.824219 435.972656 341.71875 442.203125 340.910156 449.039062 C 348.921875 449.039062 356.933594 449.039062 364.945312 449.039062 C 356.597656 451.652344 347.699219 452.542969 338.238281 451.707031 C 338.238281 444.585938 338.238281 437.46875 338.238281 430.347656 Z M 338.238281 430.347656 " fill-opacity="1" fill-rule="evenodd"/><path fill="#7d7d7d" d="M 410.339844 443.695312 C 410.339844 446.367188 410.339844 449.039062 410.339844 451.707031 C 400.003906 452.550781 390.210938 451.660156 380.964844 449.039062 C 391.652344 450.277344 401.445312 448.496094 410.339844 443.695312 Z M 410.339844 443.695312 " fill-opacity="1" fill-rule="evenodd"/><path fill="#8d8d8d" d="M 474.429688 441.027344 C 474.429688 443.695312 474.429688 446.367188 474.429688 449.039062 C 478.882812 449.039062 483.332031 449.039062 487.78125 449.039062 C 483.070312 451.605469 477.726562 452.496094 471.761719 451.707031 C 471.042969 447.4375 471.9375 443.878906 474.429688 441.027344 Z M 474.429688 441.027344 " fill-opacity="1" fill-rule="evenodd"/><path fill="#252525" d="M 672.039062 475.738281 C 729.476562 473.980469 756.625 501.570312 753.484375 558.515625 C 741.914062 599.695312 714.761719 617.941406 672.039062 613.253906 C 631.34375 599.984375 613.09375 571.949219 617.296875 529.144531 C 626.515625 501.671875 644.765625 483.871094 672.039062 475.738281 Z M 672.039062 475.738281 " fill-opacity="1" fill-rule="evenodd"/><path fill="#252525" d="M 351.59375 486.421875 C 411.671875 481.972656 440.601562 509.566406 438.378906 569.195312 C 431.996094 596.050781 415.53125 613.410156 388.976562 621.265625 C 347.777344 628.933594 319.738281 613.359375 304.859375 574.535156 C 296.480469 532.554688 312.058594 503.179688 351.59375 486.421875 Z M 351.59375 486.421875 " fill-opacity="1" fill-rule="evenodd"/><path fill="#f9f9f9" d="M 674.710938 518.460938 C 702.714844 515.757812 714.734375 528.21875 710.761719 555.84375 C 692.75 577.917969 675.835938 577.03125 660.023438 553.175781 C 656.902344 538.097656 661.796875 526.523438 674.710938 518.460938 Z M 674.710938 518.460938 " fill-opacity="1" fill-rule="evenodd"/><path fill="#f8f8f8" d="M 359.601562 529.144531 C 387.609375 526.433594 399.625 538.898438 395.652344 566.527344 C 386.273438 581.664062 373.367188 585.667969 356.933594 578.542969 C 338.863281 561.007812 339.757812 544.542969 359.601562 529.144531 Z M 359.601562 529.144531 " fill-opacity="1" fill-rule="evenodd"/></svg>