<?xml version="1.0" encoding="UTF-8"?>
<!DOCTYPE svg PUBLIC "-//W3C//DTD SVG 1.1//EN" "http://www.w3.org/Graphics/SVG/1.1/DTD/svg11.dtd">
<svg xmlns="http://www.w3.org/2000/svg" version="1.1" width="303px" height="166px" style="shape-rendering:geometricPrecision; text-rendering:geometricPrecision; image-rendering:optimizeQuality; fill-rule:evenodd; clip-rule:evenodd" xmlns:xlink="http://www.w3.org/1999/xlink">
<g><path style="opacity:1" fill="#fcfbfb" d="M -0.5,-0.5 C 65.5,-0.5 131.5,-0.5 197.5,-0.5C 197.5,-0.166667 197.5,0.166667 197.5,0.5C 151.499,0.333342 105.499,0.500009 59.5,1C 52.2625,4.14145 49.5958,9.47478 51.5,17C 56.3621,18.4759 58.5288,16.6426 58,11.5C 59.1667,10.3333 60.3333,9.16667 61.5,8C 106.833,7.33333 152.167,7.33333 197.5,8C 198.333,8.83333 199.167,9.66667 200,10.5C 200.5,51.832 200.667,93.1653 200.5,134.5C 192.826,134.334 185.159,134.5 177.5,135C 175.398,136.733 175.065,138.733 176.5,141C 186.833,141.667 197.167,141.667 207.5,141C 208.435,138.619 208.768,136.119 208.5,133.5C 213.833,133.5 219.167,133.5 224.5,133.5C 226.169,113.665 237.002,102.998 257,101.5C 276.238,103.571 287.071,114.237 289.5,133.5C 293.833,133.5 298.167,133.5 302.5,133.5C 302.5,144.167 302.5,154.833 302.5,165.5C 201.5,165.5 100.5,165.5 -0.5,165.5C -0.5,136.833 -0.5,108.167 -0.5,79.5C 0.28913,79.7828 0.955796,80.2828 1.5,81C 18.8333,81.6667 36.1667,81.6667 53.5,81C 58.8333,78.6667 58.8333,76.3333 53.5,74C 36.1667,73.3333 18.8333,73.3333 1.5,74C 0.955796,74.7172 0.28913,75.2172 -0.5,75.5C -0.5,50.1667 -0.5,24.8333 -0.5,-0.5 Z"/></g>
<g><path style="opacity:1" fill="#fefefe" d="M 197.5,0.5 C 197.5,0.166667 197.5,-0.166667 197.5,-0.5C 232.5,-0.5 267.5,-0.5 302.5,-0.5C 302.5,38.1667 302.5,76.8333 302.5,115.5C 297.098,91.1172 281.765,78.1172 256.5,76.5C 253.362,63.7235 247.695,52.2235 239.5,42C 229.271,40.5488 218.938,40.0488 208.5,40.5C 208.666,30.1613 208.5,19.828 208,9.5C 206.18,4.51178 202.68,1.51178 197.5,0.5 Z"/></g>
<g><path style="opacity:1" fill="#262626" d="M 197.5,0.5 C 202.68,1.51178 206.18,4.51178 208,9.5C 208.5,19.828 208.666,30.1613 208.5,40.5C 218.938,40.0488 229.271,40.5488 239.5,42C 247.695,52.2235 253.362,63.7235 256.5,76.5C 281.765,78.1172 297.098,91.1172 302.5,115.5C 302.5,121.5 302.5,127.5 302.5,133.5C 298.167,133.5 293.833,133.5 289.5,133.5C 287.071,114.237 276.238,103.571 257,101.5C 237.002,102.998 226.169,113.665 224.5,133.5C 219.167,133.5 213.833,133.5 208.5,133.5C 208.768,136.119 208.435,138.619 207.5,141C 197.167,141.667 186.833,141.667 176.5,141C 175.065,138.733 175.398,136.733 177.5,135C 185.159,134.5 192.826,134.334 200.5,134.5C 200.667,93.1653 200.5,51.832 200,10.5C 199.167,9.66667 198.333,8.83333 197.5,8C 152.167,7.33333 106.833,7.33333 61.5,8C 60.3333,9.16667 59.1667,10.3333 58,11.5C 58.5288,16.6426 56.3621,18.4759 51.5,17C 49.5958,9.47478 52.2625,4.14145 59.5,1C 105.499,0.500009 151.499,0.333342 197.5,0.5 Z"/></g>
<g><path style="opacity:1" fill="#c94638" d="M 137.5,23.5 C 142.337,23.1162 147.003,23.7829 151.5,25.5C 152.192,26.0253 152.692,26.6919 153,27.5C 153.498,30.4816 153.665,33.4816 153.5,36.5C 150.167,36.5 146.833,36.5 143.5,36.5C 143.5,34.5 143.5,32.5 143.5,30.5C 140.056,31.045 138.889,33.045 140,36.5C 142.234,38.6998 144.734,40.5331 147.5,42C 153.279,47.7262 154.112,54.2262 150,61.5C 144.146,67.0769 137.646,67.9102 130.5,64C 129.299,63.0975 128.465,61.9308 128,60.5C 127.502,57.1832 127.335,53.8499 127.5,50.5C 130.833,50.5 134.167,50.5 137.5,50.5C 137.5,53.5 137.5,56.5 137.5,59.5C 138.822,59.67 139.989,59.3366 141,58.5C 141.667,56.1667 141.667,53.8333 141,51.5C 137.478,48.7341 134.145,45.7341 131,42.5C 127.563,34.0749 129.73,27.7416 137.5,23.5 Z"/></g>
<g><path style="opacity:1" fill="#c84435" d="M 82.5,24.5 C 88.5,24.5 94.5,24.5 100.5,24.5C 100.167,27.1667 99.8333,29.8333 99.5,32.5C 96.8333,32.5 94.1667,32.5 91.5,32.5C 91.5,35.1667 91.5,37.8333 91.5,40.5C 93.5,40.5 95.5,40.5 97.5,40.5C 99.1667,47.5 96.5,50.1667 89.5,48.5C 89.0932,54.1613 88.7599,59.828 88.5,65.5C 84.8333,65.5 81.1667,65.5 77.5,65.5C 78.9479,51.8022 80.6145,38.1355 82.5,24.5 Z"/></g>
<g><path style="opacity:1" fill="#c84637" d="M 106.5,24.5 C 111.833,24.5 117.167,24.5 122.5,24.5C 122.924,38.1639 123.257,51.8306 123.5,65.5C 119.833,65.5 116.167,65.5 112.5,65.5C 112.5,63.1667 112.5,60.8333 112.5,58.5C 111.167,58.5 109.833,58.5 108.5,58.5C 108.007,60.8056 107.674,63.139 107.5,65.5C 103.833,65.5 100.167,65.5 96.5,65.5C 99.6771,51.7916 103.01,38.1249 106.5,24.5 Z"/></g>
<g><path style="opacity:1" fill="#c84536" d="M 158.5,24.5 C 166.507,24.3336 174.507,24.5003 182.5,25C 181.565,27.3806 181.232,29.8806 181.5,32.5C 179.167,32.5 176.833,32.5 174.5,32.5C 173.218,43.4761 172.218,54.4761 171.5,65.5C 167.833,65.5 164.167,65.5 160.5,65.5C 161.72,54.5215 162.72,43.5215 163.5,32.5C 161.5,32.5 159.5,32.5 157.5,32.5C 157.833,29.8333 158.167,27.1667 158.5,24.5 Z"/></g>
<g><path style="opacity:1" fill="#c74031" d="M 24.5,32.5 C 38.1707,32.3334 51.8374,32.5001 65.5,33C 68.1667,35 68.1667,37 65.5,39C 51.8333,39.6667 38.1667,39.6667 24.5,39C 21.9387,36.8441 21.9387,34.6774 24.5,32.5 Z"/></g>
<g><path style="opacity:1" fill="#fdf8f8" d="M 112.5,37.5 C 113.485,41.6344 113.818,45.9677 113.5,50.5C 112.5,50.5 111.5,50.5 110.5,50.5C 110.909,46.1235 111.575,41.7902 112.5,37.5 Z"/></g>
<g><path style="opacity:1" fill="#fbfbfb" d="M 218.5,51.5 C 222.514,51.3345 226.514,51.5012 230.5,52C 235.611,59.5527 239.944,67.5527 243.5,76C 235.173,76.4997 226.84,76.6664 218.5,76.5C 218.5,68.1667 218.5,59.8333 218.5,51.5 Z"/></g>
<g><path style="opacity:1" fill="#292929" d="M 13.5,52.5 C 28.5037,52.3334 43.5037,52.5001 58.5,53C 62.0374,54.8265 62.3707,57.1598 59.5,60C 44.1667,60.6667 28.8333,60.6667 13.5,60C 10.9142,57.506 10.9142,55.006 13.5,52.5 Z"/></g>
<g><path style="opacity:1" fill="#292929" d="M -0.5,79.5 C -0.5,78.1667 -0.5,76.8333 -0.5,75.5C 0.28913,75.2172 0.955796,74.7172 1.5,74C 18.8333,73.3333 36.1667,73.3333 53.5,74C 58.8333,76.3333 58.8333,78.6667 53.5,81C 36.1667,81.6667 18.8333,81.6667 1.5,81C 0.955796,80.2828 0.28913,79.7828 -0.5,79.5 Z"/></g>
<g><path style="opacity:1" fill="#747474" d="M 90.5,76.5 C 94.0187,75.1923 97.6853,75.1923 101.5,76.5C 101.376,77.1067 101.043,77.44 100.5,77.5C 97.3752,76.5206 94.0419,76.1872 90.5,76.5 Z"/></g>
<g><path style="opacity:1" fill="#7a7a7a" d="M 169.5,76.5 C 165.731,76.244 162.064,76.5773 158.5,77.5C 159.871,76.2132 161.705,75.5465 164,75.5C 166.033,75.5056 167.866,75.8389 169.5,76.5 Z"/></g>
<g><path style="opacity:1" fill="#282828" d="M 72.5,75.5 C 76.6049,75.2338 80.6049,75.7338 84.5,77C 85.5742,77.7387 86.2409,78.7387 86.5,80C 85.5945,85.8135 84.7612,91.6469 84,97.5C 83.0975,98.7014 81.9308,99.5348 80.5,100C 76.8484,100.499 73.1817,100.665 69.5,100.5C 70.4268,92.159 71.4268,83.8257 72.5,75.5 Z"/></g>
<g><path style="opacity:1" fill="#202020" d="M 90.5,76.5 C 94.0419,76.1872 97.3752,76.5206 100.5,77.5C 100.5,78.5 100.5,79.5 100.5,80.5C 96.5,79.8333 94.8333,81.5 95.5,85.5C 96.8333,85.5 98.1667,85.5 99.5,85.5C 99.5,86.8333 99.5,88.1667 99.5,89.5C 95.0917,89.062 93.4251,91.062 94.5,95.5C 95.8333,95.5 97.1667,95.5 98.5,95.5C 98.5,96.8333 98.5,98.1667 98.5,99.5C 94.6707,100.069 91.3373,99.4023 88.5,97.5C 89.0203,90.4843 89.687,83.4843 90.5,76.5 Z"/></g>
<g><path style="opacity:1" fill="#232323" d="M 111.5,99.5 C 107.988,100.055 104.988,99.3878 102.5,97.5C 102.948,90.1451 103.615,82.8117 104.5,75.5C 106.5,75.5 108.5,75.5 110.5,75.5C 109.906,82.1751 109.24,88.8417 108.5,95.5C 109.833,95.5 111.167,95.5 112.5,95.5C 112.768,97.099 112.434,98.4324 111.5,99.5 Z"/></g>
<g><path style="opacity:1" fill="#242424" d="M 120.5,99.5 C 118.833,99.5 117.167,99.5 115.5,99.5C 115.5,98.5 115.5,97.5 115.5,96.5C 115.979,89.481 116.646,82.481 117.5,75.5C 119.5,75.5 121.5,75.5 123.5,75.5C 122.689,83.6624 121.689,91.6624 120.5,99.5 Z"/></g>
<g><path style="opacity:1" fill="#232323" d="M 136.5,99.5 C 133.5,99.5 130.5,99.5 127.5,99.5C 127.802,96.9407 127.468,94.6074 126.5,92.5C 126.5,87.1667 126.5,81.8333 126.5,76.5C 128.5,76.5 130.5,76.5 132.5,76.5C 132.334,81.5111 132.501,86.5111 133,91.5C 133.841,86.4689 134.841,81.4689 136,76.5C 138.139,75.2309 140.305,75.2309 142.5,76.5C 140.341,84.1363 138.341,91.803 136.5,99.5 Z"/></g>
<g><path style="opacity:1" fill="#262626" d="M 153.5,97.5 C 150.169,99.2976 146.502,99.9643 142.5,99.5C 143.24,91.5066 143.907,83.5066 144.5,75.5C 148.167,75.5 151.833,75.5 155.5,75.5C 155.5,77.1667 155.5,78.8333 155.5,80.5C 153.833,80.5 152.167,80.5 150.5,80.5C 150.5,82.1667 150.5,83.8333 150.5,85.5C 151.5,85.5 152.5,85.5 153.5,85.5C 153.5,86.8333 153.5,88.1667 153.5,89.5C 152.167,89.5 150.833,89.5 149.5,89.5C 149.5,91.5 149.5,93.5 149.5,95.5C 151.483,95.1568 152.817,95.8235 153.5,97.5 Z"/></g>
<g><path style="opacity:1" fill="#262626" d="M 169.5,76.5 C 171.735,77.2858 172.735,78.9524 172.5,81.5C 172.565,84.0367 171.565,86.0367 169.5,87.5C 170.383,88.548 171.05,89.7147 171.5,91C 170.633,94.1052 170.299,97.2719 170.5,100.5C 168.5,100.5 166.5,100.5 164.5,100.5C 165.079,96.7624 165.079,93.0957 164.5,89.5C 162.974,92.6538 162.307,95.9872 162.5,99.5C 160.5,99.5 158.5,99.5 156.5,99.5C 157.035,92.1527 157.701,84.8194 158.5,77.5C 162.064,76.5773 165.731,76.244 169.5,76.5 Z"/></g>
<g><path style="opacity:1" fill="#272727" d="M 182.5,99.5 C 180.833,99.5 179.167,99.5 177.5,99.5C 177.5,98.5 177.5,97.5 177.5,96.5C 177.799,89.7186 177.133,83.0519 175.5,76.5C 177.396,75.5344 179.396,75.2011 181.5,75.5C 181.081,85.435 182.081,85.7683 184.5,76.5C 186.421,75.359 188.421,75.1923 190.5,76C 186.332,83.3377 183.665,91.1711 182.5,99.5 Z"/></g>
<g><path style="opacity:1" fill="#ededed" d="M 76.5,79.5 C 78.9484,79.0101 80.615,79.8434 81.5,82C 80.7703,85.7938 80.2703,89.6272 80,93.5C 78.951,95.1066 77.451,95.7733 75.5,95.5C 75.9801,90.1779 76.3135,84.8446 76.5,79.5 Z"/></g>
<g><path style="opacity:1" fill="#cdcdcd" d="M 163.5,79.5 C 164.833,79.5 166.167,79.5 167.5,79.5C 168.401,83.2407 167.068,85.2407 163.5,85.5C 163.5,83.5 163.5,81.5 163.5,79.5 Z"/></g>
<g><path style="opacity:1" fill="#202020" d="M 52.5,95.5 C 53.9305,95.4208 55.2638,95.7542 56.5,96.5C 57.3324,107.485 57.8324,118.485 58,129.5C 58.7845,131.286 59.9512,132.786 61.5,134C 74.8333,134.333 88.1667,134.667 101.5,135C 104.167,137 104.167,139 101.5,141C 87.5,141.667 73.5,141.667 59.5,141C 54.9378,139.373 52.1045,136.206 51,131.5C 50.3333,120.167 50.3333,108.833 51,97.5C 51.7172,96.9558 52.2172,96.2891 52.5,95.5 Z"/></g>
<g><path style="opacity:1" fill="#7f7f7f" d="M 88.5,97.5 C 91.3373,99.4023 94.6707,100.069 98.5,99.5C 95.0381,100.482 91.3714,100.815 87.5,100.5C 87.2627,99.209 87.596,98.209 88.5,97.5 Z"/></g>
<g><path style="opacity:1" fill="#7f7f7f" d="M 102.5,97.5 C 104.988,99.3878 107.988,100.055 111.5,99.5C 108.375,100.479 105.042,100.813 101.5,100.5C 101.263,99.209 101.596,98.209 102.5,97.5 Z"/></g>
<g><path style="opacity:1" fill="#7f7f7f" d="M 115.5,96.5 C 115.5,97.5 115.5,98.5 115.5,99.5C 117.167,99.5 118.833,99.5 120.5,99.5C 118.735,100.461 116.735,100.795 114.5,100.5C 114.232,98.901 114.566,97.5676 115.5,96.5 Z"/></g>
<g><path style="opacity:1" fill="#7e7e7e" d="M 126.5,92.5 C 127.468,94.6074 127.802,96.9407 127.5,99.5C 130.5,99.5 133.5,99.5 136.5,99.5C 133.375,100.479 130.042,100.813 126.5,100.5C 126.5,97.8333 126.5,95.1667 126.5,92.5 Z"/></g>
<g><path style="opacity:1" fill="#7d7d7d" d="M 153.5,97.5 C 153.5,98.5 153.5,99.5 153.5,100.5C 149.629,100.815 145.962,100.482 142.5,99.5C 146.502,99.9643 150.169,99.2976 153.5,97.5 Z"/></g>
<g><path style="opacity:1" fill="#8d8d8d" d="M 177.5,96.5 C 177.5,97.5 177.5,98.5 177.5,99.5C 179.167,99.5 180.833,99.5 182.5,99.5C 180.735,100.461 178.735,100.795 176.5,100.5C 176.232,98.901 176.566,97.5676 177.5,96.5 Z"/></g>
<g><path style="opacity:1" fill="#252525" d="M 251.5,109.5 C 273.009,108.841 283.175,119.174 282,140.5C 277.666,155.922 267.499,162.756 251.5,161C 236.261,156.031 229.427,145.531 231,129.5C 234.453,119.212 241.286,112.545 251.5,109.5 Z"/></g>
<g><path style="opacity:1" fill="#252525" d="M 131.5,113.5 C 153.999,111.835 164.832,122.168 164,144.5C 161.609,154.558 155.443,161.058 145.5,164C 130.071,166.872 119.571,161.039 114,146.5C 110.862,130.777 116.695,119.777 131.5,113.5 Z"/></g>
<g><path style="opacity:1" fill="#f9f9f9" d="M 252.5,125.5 C 262.988,124.487 267.488,129.154 266,139.5C 259.256,147.767 252.922,147.434 247,138.5C 245.831,132.853 247.665,128.519 252.5,125.5 Z"/></g>
<g><path style="opacity:1" fill="#f8f8f8" d="M 134.5,129.5 C 144.987,128.486 149.487,133.153 148,143.5C 144.488,149.169 139.654,150.669 133.5,148C 126.734,141.433 127.068,135.267 134.5,129.5 Z"/></g>
</svg>
