<?xml version="1.0" encoding="UTF-8"?>
<svg version="1.1" xmlns="http://www.w3.org/2000/svg" width="292" height="173">
<path d="M0 0 C96.36 0 192.72 0 292 0 C292 57.09 292 114.18 292 173 C195.64 173 99.28 173 0 173 C0 115.91 0 58.82 0 0 Z " fill="#FDFDFD" transform="translate(0,0)"/>
<path d="M0 0 C15.365625 -0.061875 30.73125 -0.12375 46.5625 -0.1875 C51.38560791 -0.21481201 56.20871582 -0.24212402 61.17797852 -0.27026367 C67.14050293 -0.28381348 67.14050293 -0.28381348 69.94590759 -0.28633118 C71.87443631 -0.29088985 73.80295734 -0.30133922 75.73143005 -0.31672668 C90.36973868 -0.42752557 104.69709899 -0.19073284 118.1875 6.25 C119.18100464 6.70886597 119.18100464 6.70886597 120.19458008 7.17700195 C122.14299531 8.09328117 124.07322681 9.03917017 126 10 C127.59328125 10.78697266 127.59328125 10.78697266 129.21875 11.58984375 C143.92203758 19.50253404 155.43570575 32.18659042 163 47 C163 47.66 163 48.32 163 49 C160.03 49.99 157.06 50.98 154 52 C153.67128906 51.40574219 153.34257812 50.81148437 153.00390625 50.19921875 C142.21858195 31.40527966 126.69142792 19.07912422 106.0625 12.5078125 C85.09255976 7.34475903 63.37510281 11.07305779 45 22 C41.44138672 24.44904566 38.20134614 27.10302633 35 30 C33.84564453 31.01513672 33.84564453 31.01513672 32.66796875 32.05078125 C19.65610537 44.17597592 11.25658942 61.77658249 10.56640625 79.5859375 C10.54288408 81.84883646 10.54204651 84.11207122 10.5625 86.375 C10.57079834 87.56311279 10.57909668 88.75122559 10.58764648 89.9753418 C10.9276422 107.61761065 17.1432672 123.7454208 29 137 C29.96486328 138.10408203 29.96486328 138.10408203 30.94921875 139.23046875 C43.40724869 152.60960996 61.22710602 161.60408017 79.6015625 162.3359375 C100.65271468 162.65531514 117.61538151 158.00047625 135 146 C136.65 147.98 138.3 149.96 140 152 C137.50284955 158.92111452 128.21417579 162.40517995 121.9296875 165.5234375 C109.38122725 171.04476001 96.26957075 173.17236236 82.64648438 173.11352539 C81.73359901 173.11364593 80.82071365 173.11376646 79.8801651 173.11389065 C76.9513345 173.11314958 74.02256908 173.1055584 71.09375 173.09765625 C69.27506542 173.09618433 67.45638041 173.09516516 65.63769531 173.09460449 C58.92512371 173.08938059 52.2125612 173.07541933 45.5 173.0625 C22.9775 173.0315625 22.9775 173.0315625 0 173 C0 115.91 0 58.82 0 0 Z " fill="#050505" transform="translate(0,0)"/>
<path d="M0 0 C4.91676052 0.45737307 7.53685755 1.44805902 11 5 C15.18114179 11.5131589 17.18022151 16.72656869 17.1875 24.5 C17.19974609 25.15742187 17.21199219 25.81484375 17.22460938 26.4921875 C17.24179523 32.47286583 16.19549342 38.15325822 15 44 C16.04865234 43.97381592 17.09730469 43.94763184 18.17773438 43.9206543 C22.09873805 43.82959569 26.01964987 43.77255092 29.94140625 43.7253418 C31.63297281 43.7003234 33.32443264 43.6662971 35.015625 43.62280273 C51.94229215 43.19863802 51.94229215 43.19863802 57.70507812 47.52661133 C59.23746912 49.27019724 60.15676199 50.83570638 61 53 C60.68940148 56.35446396 60.08377382 59.5718227 59.4375 62.875 C58.95618136 66.31299027 58.9682528 69.58329038 59.0625 73.046875 C59 75 59 75 58 77 C57.34 77 56.68 77 56 77 C56.0825 78.299375 56.165 79.59875 56.25 80.9375 C56.25957103 87.00553075 54.20198978 92.28985874 50.375 97 C48.49979903 99.72756505 48.21320449 102.44146458 47.72265625 105.68359375 C46.73337664 108.85463597 45.31599746 110.62076417 43 113 C40.21232605 113.63491821 40.21232605 113.63491821 36.96557617 113.64697266 C35.74718552 113.66273346 34.52879486 113.67849426 33.27348328 113.69473267 C31.95991348 113.68461151 30.64634369 113.67449036 29.29296875 113.6640625 C27.9253954 113.66743328 26.55782497 113.67228809 25.19026184 113.67855835 C22.32438629 113.68592509 19.4592906 113.67523754 16.59350586 113.65185547 C12.93472089 113.62344639 9.27777617 113.63971929 5.61905956 113.66971779 C2.79379147 113.68786684 -0.03104727 113.68199716 -2.85632896 113.66907883 C-4.85644609 113.66415623 -6.85658041 113.67925045 -8.85664368 113.69473267 C-20.70144359 113.5426913 -20.70144359 113.5426913 -24.89094543 109.82128906 C-27.41533529 105.67573683 -26.83602795 100.82686956 -26.68359375 96.13671875 C-26.67368912 94.98959915 -26.66378448 93.84247955 -26.65357971 92.66059875 C-26.61443653 89.0015913 -26.52660476 85.34559856 -26.4375 81.6875 C-26.4023865 79.20512149 -26.37044759 76.72269589 -26.34179688 74.24023438 C-26.26467452 68.15913002 -26.14758303 62.07978036 -26 56 C-23.36175537 54.51799011 -23.36175537 54.51799011 -20.72351074 53.03598022 C-10.61809185 46.9617424 -4.73214622 31.95217662 -2 21 C-1.57979962 17.68665435 -1.44828778 14.39971142 -1.375 11.0625 C-1.32409945 9.38659945 -1.26959181 7.71080335 -1.2109375 6.03515625 C-1.18459229 4.94279663 -1.18459229 4.94279663 -1.15771484 3.82836914 C-1 2 -1 2 0 0 Z " fill="#FDFDFD" transform="translate(225,20)"/>
<path d="M0 0 C7.20899676 2.90889343 11.33071825 8.2839545 15.10546875 14.953125 C18.55466797 23.17938418 18.3804451 35.45496537 16 44 C16.82612793 43.97905273 17.65225586 43.95810547 18.50341797 43.93652344 C21.61584221 43.86769726 24.7278742 43.81788758 27.84082031 43.78027344 C29.83164478 43.75064523 31.82211708 43.69977674 33.8125 43.6484375 C42.20541635 43.56366057 49.77635526 44.03678885 56.67553711 49.27124023 C60.02964223 52.69619426 60.68024007 56.18727563 61.0546875 60.75390625 C61 63 61 63 60.53515625 65.3046875 C59.6067564 69.98056996 59.60034662 74.75000547 59.37890625 79.50390625 C59.02983441 82.72472371 58.50337799 84.24766184 57 87 C56.68285183 88.72127426 56.41537431 90.4521495 56.1875 92.1875 C55.36968473 97.05575468 53.85519 100.4352846 51.29296875 104.60546875 C49.77758802 107.41189892 48.87823518 110.20469519 47.9375 113.25 C46.35172256 118.2557071 44.8668723 122.20263253 40.24542236 125.10002136 C37.40809458 126.23723921 35.12985062 126.26125408 32.07324219 126.2746582 C30.87809998 126.28419022 29.68295776 126.29372223 28.45159912 126.30354309 C27.16304016 126.30263168 25.8744812 126.30172028 24.546875 126.30078125 C23.20412057 126.30467165 21.86136736 126.30900703 20.51861572 126.31376648 C17.70426446 126.32122264 14.89003864 126.32094304 12.07568359 126.31567383 C8.48693396 126.30989713 4.89870345 126.32676879 1.31003952 126.3500185 C-1.46454827 126.36482972 -4.2390134 126.36561729 -7.01363373 126.36250877 C-8.97438331 126.36326534 -10.93511398 126.37708721 -12.89581299 126.39118958 C-22.82240958 126.33999467 -29.68140176 124.96159345 -37 118 C-38.31857548 115.36284904 -38.11991704 113.4016736 -38.11352539 110.44873047 C-38.11344986 109.28767792 -38.11337433 108.12662537 -38.11329651 106.9303894 C-38.10813522 105.67203278 -38.10297394 104.41367615 -38.09765625 103.1171875 C-38.0962413 101.83264679 -38.09482635 100.54810608 -38.09336853 99.22463989 C-38.08954911 95.80843158 -38.07972373 92.39226574 -38.06866455 88.97607422 C-38.05843807 85.49056574 -38.05386826 82.0050504 -38.04882812 78.51953125 C-38.03810096 71.67967005 -38.02103142 64.83983706 -38 58 C-37.44901138 57.73209656 -36.89802277 57.46419312 -36.33033752 57.18817139 C-35.60845749 56.83313538 -34.88657745 56.47809937 -34.14282227 56.11230469 C-33.42683365 55.76190125 -32.71084503 55.4114978 -31.97315979 55.05047607 C-21.75685966 49.61149495 -17.44497834 36.33493501 -14 26 C-13.88821756 24.58991471 -13.82253081 23.1758318 -13.7890625 21.76171875 C-13.74652344 20.53098633 -13.74652344 20.53098633 -13.703125 19.27539062 C-13.65140174 17.56205772 -13.60702571 15.84848587 -13.5703125 14.13476562 C-13.37999064 9.0634811 -12.83000305 5.38441359 -10 1 C-6.76739427 -0.61630286 -3.5042087 -0.43324762 0 0 Z M-6 6 C-7.34463027 8.68926055 -7.09696202 11.16453785 -7.13720703 14.11914062 C-7.44890392 29.64951383 -12.0525945 44.73894007 -23.1171875 56.19140625 C-26.04181757 58.84285659 -28.22766542 60.74255514 -32 62 C-32.17753514 69.31367694 -32.3000933 76.6267983 -32.38452148 83.94213867 C-32.41971686 86.43030562 -32.46748077 88.91832789 -32.52807617 91.40600586 C-32.61302824 94.98327302 -32.65269925 98.55862678 -32.68359375 102.13671875 C-32.71972275 103.24834885 -32.75585175 104.35997894 -32.79307556 105.5052948 C-32.83976856 110.90585737 -32.83976856 110.90585737 -30.89094543 115.82128906 C-25.47209537 120.63468251 -17.68277476 119.71660936 -10.89453125 119.6640625 C-9.52405874 119.66743544 -8.15358916 119.67229204 -6.78312683 119.67855835 C-3.92258997 119.68590004 -1.06283772 119.67530879 1.79760742 119.65185547 C5.45995917 119.62328559 9.12048535 119.63983702 12.78277111 119.66971779 C15.60791257 119.68779634 18.4326217 119.68203212 21.25777626 119.66907883 C23.26302407 119.66413631 25.26828889 119.67928249 27.27348328 119.69473267 C28.49187393 119.67897186 29.71026459 119.66321106 30.96557617 119.64697266 C32.03700363 119.64299469 33.10843109 119.63901672 34.21232605 119.63491821 C37.95733887 118.78195732 38.97086572 117.17690674 41 114 C41.95641772 111.2986965 41.95641772 111.2986965 42.5 108.5 C43.59429912 104.03310686 44.92338446 101.47359819 48 98 C50.27359868 92.99808291 50.2152393 88.38098246 50 83 C50.66 83 51.32 83 52 83 C53.78969519 79.42060962 52.95198354 75.19558263 52.83984375 71.26171875 C52.99988623 68.00231693 53.70827502 65.95469376 55 63 C54.91566868 58.95209672 54.31466834 57.37420019 51.6875 54.25 C46.7376921 50.10597478 43.11091246 49.71884853 36.734375 49.8046875 C35.94097717 49.8075174 35.14757935 49.81034729 34.33013916 49.81326294 C31.80327083 49.82443221 29.27676068 49.84953056 26.75 49.875 C25.0338593 49.88503402 23.31771302 49.89415913 21.6015625 49.90234375 C17.40090426 49.92436086 13.2005128 49.95886813 9 50 C9.14002441 49.3002002 9.28004883 48.60040039 9.42431641 47.87939453 C11.58524683 36.64293847 13.644047 24.08433023 7 14 C4.5889177 10.49366265 2.17840211 7.34787165 -2 6 C-3.32 6 -4.64 6 -6 6 Z " fill="#080808" transform="translate(231,14)"/>
<path d="M0 0 C1.16499023 -0.0309375 1.16499023 -0.0309375 2.35351562 -0.0625 C8.01171622 -0.10148846 8.01171622 -0.10148846 10.28556824 1.34959412 C12.20557457 4.20706186 11.93656225 6.56678886 11.93481445 9.98461914 C11.93846512 10.66459457 11.94211578 11.34457001 11.94587708 12.04515076 C11.95398128 14.29207353 11.94037575 16.5382749 11.92578125 18.78515625 C11.92526268 20.34549458 11.92578025 21.90583358 11.92729187 23.46617126 C11.92720216 26.73544066 11.91677367 30.00446341 11.89868164 33.27368164 C11.87597557 37.46941745 11.87545379 41.6647934 11.88219929 45.86057377 C11.88553632 49.0818554 11.87891454 52.30305459 11.86907005 55.5243206 C11.86521458 57.07171637 11.86407127 58.61912131 11.8656559 60.16652107 C11.86602569 62.32611787 11.8534319 64.48524846 11.8371582 66.64477539 C11.83255081 67.87482803 11.82794342 69.10488068 11.82319641 70.37220764 C11.5625 73.25 11.5625 73.25 9.5625 75.25 C6.61328125 75.50878906 6.61328125 75.50878906 2.875 75.515625 C2.21669189 75.51753845 1.55838379 75.5194519 0.88012695 75.52142334 C-0.5118854 75.5227845 -1.90391047 75.51909283 -3.29589844 75.51074219 C-5.42932589 75.500041 -7.56191131 75.51063906 -9.6953125 75.5234375 C-11.04687686 75.52211589 -12.3984407 75.51955347 -13.75 75.515625 C-14.98363281 75.51336914 -16.21726563 75.51111328 -17.48828125 75.50878906 C-20.4375 75.25 -20.4375 75.25 -22.4375 73.25 C-22.80303898 63.88737416 -20.14946501 54.0321756 -18.5625 44.8125 C-18.01570808 41.60459172 -17.47204152 38.39616135 -16.9296875 35.1875 C-16.79780029 34.40858902 -16.66591309 33.62967804 -16.5300293 32.8271637 C-15.36272111 25.89258433 -14.30510467 18.94356852 -13.37548828 11.97290039 C-12.84029934 8.14792525 -12.19748103 4.71085822 -10.4375 1.25 C-7.16728041 -0.38510979 -3.59016249 0.02371701 0 0 Z " fill="#010101" transform="translate(173.4375,65.75)"/>
<path d="M0 0 C25.41 0 50.82 0 77 0 C77 0.33 77 0.66 77 1 C75.36804688 1.34611328 75.36804688 1.34611328 73.703125 1.69921875 C55.18891621 5.75217504 39.7491615 12.63346823 26 26 C25.13375 26.78375 24.2675 27.5675 23.375 28.375 C10.49974032 42.60555018 2.56379279 59.84353829 1 79 C0.67 79 0.34 79 0 79 C0 52.93 0 26.86 0 0 Z " fill="#FCFCFC" transform="translate(0,0)"/>
<path d="M0 0 C0.33 0 0.66 0 1 0 C1.15855469 1.06476563 1.31710938 2.12953125 1.48046875 3.2265625 C5.14914683 26.57244979 14.79915706 47.34355719 34 62 C47.37111116 71.39543411 60.99626216 76.41216154 77 79 C77 79.33 77 79.66 77 80 C51.59 80 26.18 80 0 80 C0 53.6 0 27.2 0 0 Z " fill="#FCFCFC" transform="translate(0,93)"/>
<path d="M0 0 C0.969375 0.845625 1.93875 1.69125 2.9375 2.5625 C4.2893004 3.71112399 5.64364856 4.85675368 7 6 C7.68707031 6.5878125 8.37414063 7.175625 9.08203125 7.78125 C22.23248648 18.58594835 36.38743137 21.20277379 53 20 C67.57101416 17.99543273 77.91042671 10.18416304 88 0 C88.99 1.32 89.98 2.64 91 4 C81.84231941 17.57432763 70.72234467 28.12125486 54.1875 31.4375 C52.46293306 31.6634258 50.73316341 31.85399247 49 32 C47.89978516 32.10441406 47.89978516 32.10441406 46.77734375 32.2109375 C32.66399824 32.87690299 20.00821143 27.02340005 9.3984375 18.1875 C4.52092269 13.73895229 -0.26053927 9.08160281 -3 3 C-2.01 2.01 -1.02 1.02 0 0 Z " fill="#040404" transform="translate(42,99)"/>
<path d="M0 0 C3.89249359 0.95605106 5.1526507 1.75112128 7.5625 4.875 C10.24814277 9.41547519 10.08490817 13.73007108 9.5625 18.875 C8.53664304 22.65521262 7.03462939 26.8396138 3.5625 28.875 C-3.38922414 29.64741379 -3.38922414 29.64741379 -6.8125 27.125 C-11.2220335 21.01949207 -11.20015441 15.27182892 -10.4375 7.875 C-8.59276824 2.95874443 -5.41651274 -0.1969641 0 0 Z " fill="#030303" transform="translate(107.4375,48.125)"/>
<path d="M0 0 C3.48984151 2.22080824 5.49887169 4.16747331 7 8 C7.85776416 15.63011144 7.77409391 21.82176082 3 28 C-0.20920998 29.60460499 -3.52833584 29.61994003 -7 29 C-10.17989427 25.98746859 -12.67410686 22.28971675 -13.30078125 17.88671875 C-13.33579409 11.31597522 -12.18286453 6.93557644 -8.1875 1.5625 C-5.20699566 -0.56643167 -3.59261664 -0.58654965 0 0 Z " fill="#030303" transform="translate(68,48)"/>
</svg>
