<svg xmlns="http://www.w3.org/2000/svg" xmlns:xlink="http://www.w3.org/1999/xlink" width="1080" zoomAndPan="magnify" viewBox="0 0 810 809.999993" height="1080" preserveAspectRatio="xMidYMid meet" version="1.0"><defs><clipPath id="cb00b102c4"><path d="M 1 165.683594 L 809 165.683594 L 809 644.183594 L 1 644.183594 Z M 1 165.683594 " clip-rule="nonzero"/></clipPath><clipPath id="8ff4b6a662"><path d="M 1 165.683594 L 453 165.683594 L 453 644.183594 L 1 644.183594 Z M 1 165.683594 " clip-rule="nonzero"/></clipPath><clipPath id="5056fcc428"><path d="M 1 165.683594 L 215 165.683594 L 215 385 L 1 385 Z M 1 165.683594 " clip-rule="nonzero"/></clipPath><clipPath id="49d5160662"><path d="M 1 422 L 215 422 L 215 644.183594 L 1 644.183594 Z M 1 422 " clip-rule="nonzero"/></clipPath></defs><g clip-path="url(#cb00b102c4)"><path fill="#fdfdfd" d="M 1.070312 165.683594 C 267.664062 165.683594 534.257812 165.683594 808.929688 165.683594 C 808.929688 323.585938 808.929688 481.492188 808.929688 644.183594 C 542.335938 644.183594 275.742188 644.183594 1.070312 644.183594 C 1.070312 486.277344 1.070312 328.371094 1.070312 165.683594 Z M 1.070312 165.683594 " fill-opacity="1" fill-rule="nonzero"/></g><g clip-path="url(#8ff4b6a662)"><path fill="#050505" d="M 1.070312 165.683594 C 43.582031 165.511719 86.09375 165.339844 129.890625 165.164062 C 143.234375 165.085938 156.578125 165.011719 170.328125 164.933594 C 186.824219 164.898438 186.824219 164.898438 194.585938 164.890625 C 199.921875 164.878906 205.257812 164.847656 210.59375 164.804688 C 251.089844 164.5 290.730469 165.152344 328.054688 182.96875 C 330.800781 184.238281 330.800781 184.238281 333.605469 185.53125 C 338.996094 188.066406 344.335938 190.683594 349.667969 193.339844 C 354.074219 195.515625 354.074219 195.515625 358.574219 197.738281 C 399.25 219.625 431.105469 254.707031 452.03125 295.679688 C 452.03125 297.503906 452.03125 299.328125 452.03125 301.210938 C 443.816406 303.949219 435.597656 306.6875 427.132812 309.507812 C 426.222656 307.863281 425.3125 306.222656 424.378906 304.527344 C 394.539062 252.546875 351.582031 218.453125 294.507812 200.277344 C 236.492188 185.996094 176.40625 196.308594 125.570312 226.53125 C 115.722656 233.304688 106.761719 240.644531 97.902344 248.660156 C 94.710938 251.464844 94.710938 251.464844 91.449219 254.332031 C 55.453125 287.867188 32.214844 336.550781 30.304688 385.808594 C 30.238281 392.066406 30.238281 398.328125 30.292969 404.585938 C 30.316406 407.871094 30.339844 411.160156 30.363281 414.542969 C 31.304688 463.339844 48.5 507.949219 81.304688 544.609375 C 83.972656 547.664062 83.972656 547.664062 86.695312 550.777344 C 121.164062 587.785156 170.464844 612.660156 221.300781 614.6875 C 279.539062 615.570312 326.46875 602.695312 374.566406 569.503906 C 379.132812 574.980469 383.695312 580.457031 388.398438 586.097656 C 381.492188 605.242188 355.792969 614.878906 338.40625 623.503906 C 303.6875 638.773438 267.414062 644.660156 229.722656 644.496094 C 227.199219 644.496094 224.671875 644.496094 222.070312 644.496094 C 213.96875 644.496094 205.863281 644.472656 197.761719 644.453125 C 192.730469 644.449219 187.699219 644.445312 182.667969 644.445312 C 164.09375 644.429688 145.523438 644.390625 126.953125 644.355469 C 64.640625 644.269531 64.640625 644.269531 1.070312 644.183594 C 1.070312 486.277344 1.070312 328.371094 1.070312 165.683594 Z M 1.070312 165.683594 " fill-opacity="1" fill-rule="nonzero"/></g><path fill="#fdfdfd" d="M 623.566406 221 C 637.167969 222.265625 644.417969 225.003906 653.996094 234.828125 C 665.566406 252.84375 671.097656 267.265625 671.117188 288.765625 C 671.148438 290.582031 671.183594 292.402344 671.21875 294.273438 C 671.265625 310.816406 668.371094 326.527344 665.0625 342.699219 C 667.964844 342.625 670.867188 342.554688 673.855469 342.480469 C 684.703125 342.226562 695.550781 342.070312 706.402344 341.941406 C 711.082031 341.871094 715.761719 341.777344 720.441406 341.65625 C 767.269531 340.484375 767.269531 340.484375 783.214844 352.453125 C 787.453125 357.277344 789.996094 361.605469 792.328125 367.59375 C 791.46875 376.871094 789.792969 385.769531 788.007812 394.90625 C 786.675781 404.414062 786.707031 413.460938 786.96875 423.039062 C 786.796875 428.441406 786.796875 428.441406 784.03125 433.972656 C 782.203125 433.972656 780.378906 433.972656 778.496094 433.972656 C 778.726562 437.566406 778.953125 441.160156 779.1875 444.863281 C 779.214844 461.648438 773.523438 476.265625 762.933594 489.292969 C 757.746094 496.835938 756.953125 504.34375 755.597656 513.308594 C 752.859375 522.082031 748.9375 526.964844 742.53125 533.546875 C 734.816406 535.300781 734.816406 535.300781 725.835938 535.335938 C 722.464844 535.378906 719.09375 535.421875 715.621094 535.46875 C 711.984375 535.441406 708.351562 535.410156 704.609375 535.382812 C 700.824219 535.390625 697.039062 535.40625 693.257812 535.421875 C 685.328125 535.441406 677.402344 535.414062 669.472656 535.347656 C 659.351562 535.269531 649.234375 535.316406 639.109375 535.398438 C 631.292969 535.449219 623.480469 535.433594 615.664062 535.398438 C 610.128906 535.382812 604.59375 535.425781 599.0625 535.46875 C 566.292969 535.046875 566.292969 535.046875 554.699219 524.753906 C 547.714844 513.289062 549.320312 499.875 549.742188 486.902344 C 549.769531 483.730469 549.796875 480.558594 549.824219 477.289062 C 549.933594 467.167969 550.175781 457.058594 550.421875 446.9375 C 550.519531 440.074219 550.605469 433.207031 550.6875 426.339844 C 550.898438 409.519531 551.222656 392.707031 551.632812 375.890625 C 558.929688 371.789062 558.929688 371.789062 566.230469 367.691406 C 594.1875 350.890625 610.472656 309.375 618.03125 279.082031 C 619.195312 269.917969 619.558594 260.828125 619.761719 251.597656 C 619.902344 246.960938 620.050781 242.328125 620.214844 237.691406 C 620.289062 234.671875 620.289062 234.671875 620.363281 231.589844 C 620.796875 226.53125 620.796875 226.53125 623.566406 221 Z M 623.566406 221 " fill-opacity="1" fill-rule="nonzero"/><path fill="#080808" d="M 640.164062 204.40625 C 660.109375 212.449219 671.511719 227.316406 681.957031 245.761719 C 691.5 268.515625 691.015625 302.46875 684.429688 326.105469 C 686.714844 326.046875 689 325.988281 691.355469 325.929688 C 699.96875 325.738281 708.578125 325.601562 717.191406 325.496094 C 722.699219 325.414062 728.203125 325.273438 733.710938 325.132812 C 756.933594 324.898438 777.878906 326.207031 796.964844 340.683594 C 806.246094 350.15625 808.042969 359.8125 809.082031 372.441406 C 808.929688 378.65625 808.929688 378.65625 807.644531 385.03125 C 805.074219 397.964844 805.058594 411.15625 804.445312 424.304688 C 803.480469 433.210938 802.023438 437.425781 797.863281 445.039062 C 796.984375 449.796875 796.246094 454.585938 795.613281 459.386719 C 793.351562 472.851562 789.164062 482.199219 782.074219 493.730469 C 777.882812 501.496094 775.394531 509.21875 772.789062 517.640625 C 768.402344 531.488281 764.296875 542.402344 751.507812 550.417969 C 743.660156 553.5625 737.355469 553.628906 728.898438 553.667969 C 725.59375 553.691406 722.285156 553.71875 718.878906 553.746094 C 715.316406 553.746094 711.75 553.742188 708.078125 553.738281 C 704.363281 553.75 700.648438 553.761719 696.933594 553.773438 C 689.144531 553.796875 681.359375 553.796875 673.574219 553.78125 C 663.644531 553.765625 653.71875 553.8125 643.789062 553.875 C 636.113281 553.917969 628.4375 553.917969 620.761719 553.910156 C 615.335938 553.910156 609.910156 553.949219 604.488281 553.988281 C 577.023438 553.847656 558.046875 550.035156 537.796875 530.78125 C 534.152344 523.484375 534.699219 518.0625 534.71875 509.894531 C 534.71875 506.683594 534.71875 503.472656 534.71875 500.164062 C 534.734375 496.683594 534.746094 493.203125 534.761719 489.617188 C 534.765625 486.0625 534.769531 482.511719 534.773438 478.847656 C 534.785156 469.402344 534.8125 459.953125 534.84375 450.503906 C 534.871094 440.863281 534.882812 431.222656 534.898438 421.582031 C 534.925781 402.664062 534.972656 383.746094 535.03125 364.828125 C 536.554688 364.085938 538.082031 363.34375 539.652344 362.582031 C 541.648438 361.597656 543.644531 360.617188 545.703125 359.605469 C 547.683594 358.636719 549.664062 357.667969 551.707031 356.667969 C 579.972656 341.625 591.902344 304.902344 601.429688 276.316406 C 601.742188 272.417969 601.921875 268.507812 602.015625 264.59375 C 602.132812 261.191406 602.132812 261.191406 602.253906 257.71875 C 602.394531 252.980469 602.519531 248.238281 602.621094 243.5 C 603.148438 229.472656 604.667969 219.296875 612.5 207.171875 C 621.441406 202.699219 630.46875 203.207031 640.164062 204.40625 Z M 623.566406 221 C 619.84375 228.4375 620.53125 235.285156 620.417969 243.457031 C 619.554688 286.410156 606.820312 328.148438 576.207031 359.824219 C 568.117188 367.15625 562.070312 372.410156 551.632812 375.890625 C 551.140625 396.117188 550.800781 416.347656 550.566406 436.578125 C 550.472656 443.460938 550.339844 450.34375 550.171875 457.222656 C 549.9375 467.117188 549.828125 477.007812 549.742188 486.902344 C 549.640625 489.980469 549.539062 493.054688 549.4375 496.222656 C 549.308594 511.160156 549.308594 511.160156 554.699219 524.753906 C 569.691406 538.066406 591.242188 535.527344 610.023438 535.382812 C 613.816406 535.390625 617.605469 535.40625 621.398438 535.421875 C 629.3125 535.441406 637.222656 535.414062 645.136719 535.347656 C 655.269531 535.269531 665.398438 535.316406 675.53125 535.398438 C 683.347656 535.449219 691.160156 535.433594 698.976562 535.398438 C 704.523438 535.382812 710.074219 535.425781 715.621094 535.46875 C 718.992188 535.425781 722.363281 535.378906 725.835938 535.335938 C 728.800781 535.324219 731.761719 535.3125 734.816406 535.300781 C 745.179688 532.941406 747.984375 528.503906 753.597656 519.714844 C 756.242188 512.246094 756.242188 512.246094 757.746094 504.503906 C 760.773438 492.148438 764.453125 485.070312 772.964844 475.460938 C 779.253906 461.628906 779.09375 448.855469 778.496094 433.972656 C 780.324219 433.972656 782.148438 433.972656 784.03125 433.972656 C 788.980469 424.074219 786.664062 412.386719 786.351562 401.507812 C 786.796875 392.492188 788.757812 386.828125 792.328125 378.65625 C 792.097656 367.460938 790.433594 363.09375 783.164062 354.453125 C 769.472656 342.992188 759.4375 341.921875 741.796875 342.160156 C 739.601562 342.167969 737.40625 342.175781 735.144531 342.183594 C 728.152344 342.214844 721.164062 342.28125 714.171875 342.351562 C 709.425781 342.382812 704.675781 342.40625 699.929688 342.429688 C 688.304688 342.488281 676.6875 342.585938 665.0625 342.699219 C 665.453125 340.761719 665.839844 338.828125 666.238281 336.832031 C 672.214844 305.753906 677.914062 271.019531 659.53125 243.125 C 652.859375 233.429688 646.191406 224.726562 634.632812 221 C 630.980469 221 627.328125 221 623.566406 221 Z M 623.566406 221 " fill-opacity="1" fill-rule="nonzero"/><path fill="#010101" d="M 480.910156 347.539062 C 484.132812 347.453125 484.132812 347.453125 487.421875 347.367188 C 503.078125 347.257812 503.078125 347.257812 509.367188 351.273438 C 514.679688 359.175781 513.933594 365.703125 513.929688 375.15625 C 513.941406 377.035156 513.949219 378.917969 513.960938 380.855469 C 513.984375 387.070312 513.945312 393.28125 513.90625 399.496094 C 513.902344 403.8125 513.90625 408.128906 513.910156 412.445312 C 513.910156 421.488281 513.878906 430.527344 513.832031 439.570312 C 513.769531 451.175781 513.765625 462.78125 513.785156 474.386719 C 513.792969 483.292969 513.777344 492.203125 513.75 501.113281 C 513.738281 505.394531 513.734375 509.675781 513.738281 513.953125 C 513.738281 519.925781 513.707031 525.898438 513.660156 531.871094 C 513.648438 535.273438 513.632812 538.675781 513.621094 542.183594 C 512.898438 550.140625 512.898438 550.140625 507.367188 555.671875 C 499.207031 556.390625 499.207031 556.390625 488.863281 556.40625 C 487.042969 556.414062 485.222656 556.417969 483.347656 556.425781 C 479.496094 556.425781 475.644531 556.417969 471.792969 556.394531 C 465.890625 556.363281 459.988281 556.394531 454.085938 556.429688 C 450.347656 556.425781 446.609375 556.417969 442.871094 556.40625 C 439.457031 556.402344 436.042969 556.394531 432.527344 556.390625 C 424.367188 555.671875 424.367188 555.671875 418.835938 550.140625 C 417.824219 524.246094 425.164062 496.988281 429.554688 471.484375 C 431.066406 462.613281 432.570312 453.738281 434.074219 444.863281 C 434.4375 442.710938 434.800781 440.554688 435.179688 438.335938 C 438.40625 419.15625 441.332031 399.933594 443.90625 380.65625 C 445.386719 370.074219 447.164062 360.570312 452.035156 350.996094 C 461.082031 346.472656 470.976562 347.605469 480.910156 347.539062 Z M 480.910156 347.539062 " fill-opacity="1" fill-rule="nonzero"/><g clip-path="url(#5056fcc428)"><path fill="#fcfcfc" d="M 1.070312 165.683594 C 71.371094 165.683594 141.671875 165.683594 214.101562 165.683594 C 214.101562 166.59375 214.101562 167.507812 214.101562 168.449219 C 209.585938 169.40625 209.585938 169.40625 204.980469 170.382812 C 153.757812 181.589844 111.042969 200.625 73.003906 237.59375 C 70.605469 239.761719 68.210938 241.929688 65.742188 244.164062 C 30.121094 283.523438 8.164062 331.203125 3.835938 384.1875 C 2.925781 384.1875 2.011719 384.1875 1.070312 384.1875 C 1.070312 312.082031 1.070312 239.972656 1.070312 165.683594 Z M 1.070312 165.683594 " fill-opacity="1" fill-rule="nonzero"/></g><g clip-path="url(#49d5160662)"><path fill="#fcfcfc" d="M 1.070312 422.910156 C 1.984375 422.910156 2.894531 422.910156 3.835938 422.910156 C 4.277344 425.855469 4.714844 428.800781 5.167969 431.835938 C 15.316406 496.40625 42.015625 553.859375 95.136719 594.394531 C 132.128906 620.382812 169.824219 634.257812 214.101562 641.414062 C 214.101562 642.328125 214.101562 643.242188 214.101562 644.183594 C 143.800781 644.183594 73.5 644.183594 1.070312 644.183594 C 1.070312 571.164062 1.070312 498.140625 1.070312 422.910156 Z M 1.070312 422.910156 " fill-opacity="1" fill-rule="nonzero"/></g><path fill="#040404" d="M 117.269531 439.503906 C 119.953125 441.84375 122.632812 444.183594 125.394531 446.59375 C 129.136719 449.769531 132.882812 452.9375 136.636719 456.101562 C 138.535156 457.726562 140.4375 459.351562 142.394531 461.027344 C 178.777344 490.914062 217.941406 498.148438 263.902344 494.824219 C 304.214844 489.277344 332.820312 467.675781 360.734375 439.503906 C 363.472656 443.15625 366.210938 446.808594 369.035156 450.570312 C 343.699219 488.113281 312.933594 517.285156 267.1875 526.457031 C 262.414062 527.082031 257.628906 527.609375 252.835938 528.015625 C 249.789062 528.304688 249.789062 528.304688 246.683594 528.597656 C 207.640625 530.441406 172.625 514.25 143.269531 489.808594 C 129.777344 477.507812 116.546875 464.625 108.96875 447.804688 C 111.707031 445.066406 114.449219 442.328125 117.269531 439.503906 Z M 117.269531 439.503906 " fill-opacity="1" fill-rule="nonzero"/><path fill="#030303" d="M 298.3125 298.789062 C 309.082031 301.433594 312.566406 303.632812 319.234375 312.273438 C 326.664062 324.832031 326.214844 336.765625 324.769531 350.996094 C 321.929688 361.453125 317.773438 373.027344 308.167969 378.65625 C 288.9375 380.792969 288.9375 380.792969 279.464844 373.816406 C 267.265625 356.929688 267.324219 341.03125 269.4375 320.570312 C 274.539062 306.972656 283.328125 298.246094 298.3125 298.789062 Z M 298.3125 298.789062 " fill-opacity="1" fill-rule="nonzero"/><path fill="#030303" d="M 189.203125 298.445312 C 198.855469 304.585938 204.414062 309.972656 208.570312 320.570312 C 210.941406 341.675781 210.710938 358.800781 197.5 375.890625 C 188.625 380.328125 179.441406 380.371094 169.835938 378.65625 C 161.039062 370.324219 154.136719 360.097656 152.402344 347.917969 C 152.308594 329.742188 155.496094 317.628906 166.550781 302.765625 C 174.796875 296.878906 179.261719 296.824219 189.203125 298.445312 Z M 189.203125 298.445312 " fill-opacity="1" fill-rule="nonzero"/></svg>